<?xml version="1.0" encoding="utf-8"?>
<!-- Generator: Adobe Illustrator 23.0.6, SVG Export Plug-In . SVG Version: 6.00 Build 0)  -->
<svg version="1.1" id="Layer_1" xmlns="http://www.w3.org/2000/svg" xmlns:xlink="http://www.w3.org/1999/xlink" x="0px" y="0px"
	 viewBox="0 0 512 512" style="enable-background:new 0 0 512 512;" xml:space="preserve">
<style type="text/css">
	.st0{fill:none;stroke:#231F20;stroke-width:12.8598;stroke-linecap:round;stroke-linejoin:round;stroke-miterlimit:10;}
</style>
<g>
	<path class="st0" d="M364.9,365.2v12.9c0,7.1,5.8,12.9,12.9,12.9h12.9c7.1,0,12.9-5.8,12.9-12.9v-12.9H364.9z"/>
	<path class="st0" d="M107.7,365.2v12.9c0,7.1,5.8,12.9,12.9,12.9h12.9c7.1,0,12.9-5.8,12.9-12.9v-12.9H107.7z"/>
	<path class="st0" d="M364.9,249.5h-83.6c-14.1,0-25.7,11.6-25.7,25.7c0-14.1-11.6-25.7-25.7-25.7h-83.6
		c-14.1,0-25.7,11.6-25.7,25.7v38.6h135h135v-38.6C390.6,261.1,379.1,249.5,364.9,249.5z"/>
	<path class="st0" d="M442.1,191.6h-38.6c-7.1,0-12.9,5.8-12.9,12.9v-57.9c0-14.1-11.6-25.7-25.7-25.7h-83.6
		c-14.1,0-25.7,11.6-25.7,25.7c0-14.1-11.6-25.7-25.7-25.7h-83.6c-14.1,0-25.7,11.6-25.7,25.7v57.9c0-7.1-5.8-12.9-12.9-12.9H69.1
		c-7.1,0-12.9,5.8-12.9,12.9v25.7c0,7.1,5.8,12.9,12.9,12.9H82v96.4c0,14.1,11.6,25.7,25.7,25.7h295.8c14.1,0,25.7-11.6,25.7-25.7
		v-96.4h12.9c7.1,0,12.9-5.8,12.9-12.9v-25.7C454.9,197.4,449.1,191.6,442.1,191.6z"/>
	<line class="st0" x1="120.6" y1="275.2" x2="120.6" y2="204.5"/>
	<line class="st0" x1="390.6" y1="275.2" x2="390.6" y2="204.5"/>
	<line class="st0" x1="255.6" y1="313.8" x2="255.6" y2="146.6"/>
</g>
</svg>
