<?xml version="1.0" encoding="utf-8"?>
<!-- Generator: Adobe Illustrator 16.0.0, SVG Export Plug-In . SVG Version: 6.00 Build 0)  -->
<!DOCTYPE svg PUBLIC "-//W3C//DTD SVG 1.1//EN" "http://www.w3.org/Graphics/SVG/1.1/DTD/svg11.dtd">
<svg version="1.1" id="Layer_1" xmlns="http://www.w3.org/2000/svg" xmlns:xlink="http://www.w3.org/1999/xlink" x="0px" y="0px"
	 width="50px" height="50px" viewBox="0 0 50 50" enable-background="new 0 0 50 50" xml:space="preserve">
<g>
	<rect x="15.3" y="26.94" fill="#555655" width="19.399" height="3.879"/>
	<rect x="15.3" y="19.18" fill="#555655" width="15.521" height="3.879"/>
	<rect x="15.3" y="34.7" fill="#555655" width="19.399" height="3.881"/>
	<path fill="#555655" d="M38.579,5.6h-3.88V3.661c0-1.071-0.868-1.94-1.94-1.94c-1.071,0-1.938,0.87-1.938,1.94V5.6h-3.881V3.661
		c0-1.071-0.868-1.94-1.94-1.94c-1.071,0-1.94,0.87-1.94,1.94V5.6h-3.88V3.661c0-1.071-0.868-1.94-1.94-1.94
		c-1.071,0-1.94,0.87-1.94,1.94V5.6h-3.88C9.28,5.6,7.54,7.339,7.54,9.48v34.919c0,2.141,1.74,3.881,3.879,3.881h27.16
		c2.141,0,3.88-1.74,3.88-3.881V9.48C42.459,7.339,40.72,5.6,38.579,5.6z M11.419,44.399V9.48h3.88v1.94
		c0,1.072,0.869,1.94,1.94,1.94c1.072,0,1.94-0.868,1.94-1.94V9.48h3.88v1.94c0,1.072,0.869,1.94,1.94,1.94
		c1.072,0,1.94-0.868,1.94-1.94V9.48h3.881v1.94c0,1.072,0.867,1.94,1.938,1.94c1.072,0,1.94-0.868,1.94-1.94V9.48h3.88
		l0.004,34.919H11.419z"/>
</g>
</svg>
